# xmcd
# 
# Track frame offsets:
#     150
#     16001
#     30130
# 
# Disc length: 624
# 
# Revision: 1
# Processed by: cddbd v1.5.2PL0 Copyright (c) Steve Scherf et al.
# Submitted via: fre:ac v1.0.27
# 
DISCID=0d026e03
DTITLE=Gallery 47 - Dividends
DYEAR=2012
DGENRE=
TTITLE0=All It Could Grow Up To Be
TTITLE1=Mr. Baudelaire
TTITLE2=Close To The Mind
EXTD=
EXTT0=
EXTT1=
EXTT2=
PLAYORDER=
